#!OML:ASF X:\für Bonn\!DataBase\2005_08_10_Bjorn_Final\c3d\bjorn.ASF
:FULLY-SPECIFIED
:DEGREES
81
root 0.985947 7.31874 2.73962 -188.329 -4.18309 -179.579
lowerback 43.9879 0.509381 8.97269
upperback 12.4525 -0.653733 1.09575
thorax -6.32944 -2.30821 -2.88907
lowerneck -20.0697 0.558188 2.49913
upperneck -6.76366 -1.22712 -3.34337
head 1.17993 -1.39209 -1.62199
rclavicle -1.94809e-014 -2.46493e-014
rhumerus 73.434 1.06613 -46.2863
rradius 16.2262
rwrist 22.7651
rhand -15.0317 9.12903
rfingers 7.12502
rthumb 11.1342 -20.5556
lclavicle -1.94809e-014 -2.46493e-014
lhumerus 77.819 -6.33464 58.0782
lradius 11.5968
lwrist -35.3942
lhand -24.8308 -8.23541
lfingers 7.12502
lthumb 1.67496 21.7378
rfemur 73.1906 -65.664 -170.517
rtibia 156.252
rfoot -80.0713 61.0536
rtoes -28.5312
lfemur -253.815 79.9322 -169.259
ltibia 157.728
lfoot -53.1171 -41.537
ltoes -26.6588
82
root 0.977965 7.28587 2.73371 -188.634 -4.08886 -179.518
lowerback 43.8556 0.525616 9.02022
upperback 12.4955 -0.636203 1.17449
thorax -6.23903 -2.30587 -2.84108
lowerneck -20.3291 0.578239 2.45184
upperneck -6.70471 -1.21351 -3.42721
head 1.244 -1.39728 -1.64588
rclavicle -4.69132e-014 -4.37326e-014
rhumerus 73.1363 1.14338 -46.1626
rradius 16.5583
rwrist 22.811
rhand -14.9611 9.02002
rfingers 7.12502
rthumb 11.2023 -20.6609
lclavicle -4.69132e-014 -4.37326e-014
lhumerus 77.8713 -6.13222 57.8496
lradius 11.4646
lwrist -35.2676
lhand -25.1326 -8.13459
lfingers 7.12502
lthumb 1.38347 21.8407
rfemur 72.3144 -65.343 -170.247
rtibia 156.428
rfoot -80.5555 61.6798
rtoes -28.365
lfemur -257.271 79.0346 -172.064
ltibia 157.979
lfoot -53.3599 -42.0037
ltoes -26.69
83
root 0.971492 7.26553 2.72866 -188.857 -4.00612 -179.494
lowerback 43.608 0.554125 9.03224
upperback 12.5508 -0.619132 1.22901
thorax -6.10641 -2.29573 -2.80577
lowerneck -20.5768 0.593488 2.425
upperneck -6.68483 -1.21561 -3.51576
head 1.29243 -1.41288 -1.67545
rclavicle -1.19271e-015 9.54166e-015
rhumerus 72.8966 1.11535 -46.0705
rradius 16.8887
rwrist 22.8905
rhand -14.9053 8.9445
rfingers 7.12502
rthumb 11.2561 -20.7335
lclavicle -1.19271e-015 9.54166e-015
lhumerus 77.832 -5.91793 58.0454
lradius 11.4461
lwrist -35.5417
lhand -25.4212 -7.98769
lfingers 7.12502
lthumb 1.10476 21.9892
rfemur 71.721 -65.3169 -170.103
rtibia 156.534
rfoot -80.6486 62.2321
rtoes -28.2401
lfemur -259.439 78.3875 -173.774
ltibia 158.131
lfoot -53.3971 -42.4737
ltoes -26.5379
84
root 0.964697 7.26248 2.72392 -189.022 -3.92087 -179.448
lowerback 43.325 0.575756 9.00627
upperback 12.571 -0.608679 1.30995
thorax -6.00556 -2.28592 -2.72066
lowerneck -20.8207 0.609629 2.31125
upperneck -6.65925 -1.19707 -3.55824
head 1.34252 -1.41522 -1.67265
rclavicle -2.78299e-015 -1.59028e-015
rhumerus 72.9063 1.02843 -46.4819
rradius 16.9082
rwrist 23.4666
rhand -14.8874 9.0208
rfingers 7.12502
rthumb 11.2734 -20.6563
lclavicle -2.78299e-015 -1.59028e-015
lhumerus 77.6713 -5.59531 58.6833
lradius 11.5715
lwrist -36.1405
lhand -25.5381 -7.77832
lfingers 7.12502
lthumb 0.991862 22.1991
rfemur 71.3321 -65.4935 -169.857
rtibia 156.532
rfoot -80.4962 62.5237
rtoes -28.3369
lfemur -260.839 78.0477 -174.84
ltibia 158.188
lfoot -53.2853 -42.8932
ltoes -26.3868
85
root 0.957231 7.27874 2.71954 -189.094 -3.82693 -179.429
lowerback 42.9609 0.591318 8.97698
upperback 12.5702 -0.593853 1.34037
thorax -5.90687 -2.26259 -2.69226
lowerneck -21.1243 0.628018 2.24216
upperneck -6.57697 -1.18074 -3.58781
head 1.42228 -1.41803 -1.67568
rclavicle 2.98177e-014 2.78299e-014
rhumerus 72.921 0.882903 -46.9791
rradius 16.9381
rwrist 24.0189
rhand -14.8504 9.12616
rfingers 7.12502
rthumb 11.309 -20.5489
lclavicle 2.98177e-014 2.78299e-014
lhumerus 77.5487 -5.26455 59.4047
lradius 11.76
lwrist -36.5845
lhand -25.4548 -7.68602
lfingers 7.12502
lthumb 1.07236 22.291
rfemur 71.2499 -65.9317 -169.655
rtibia 156.404
rfoot -79.8563 62.9293
rtoes -28.1743
lfemur -261.494 77.967 -175.471
ltibia 158.11
lfoot -53.1106 -43.0635
ltoes -26.4321
86
root 0.950077 7.3142 2.71604 -189.073 -3.73534 -179.413
lowerback 42.5429 0.600927 8.93745
upperback 12.5303 -0.568782 1.34814
thorax -5.83645 -2.22491 -2.68786
lowerneck -21.3959 0.642128 2.20435
upperneck -6.49989 -1.1736 -3.60759
head 1.49487 -1.4242 -1.68113
rclavicle -4.01545e-014 -6.36111e-014
rhumerus 72.9128 0.752075 -47.2245
rradius 17.0378
rwrist 24.2072
rhand -14.7767 9.15684
rfingers 7.12502
rthumb 11.3801 -20.5144
lclavicle -4.01545e-014 -6.36111e-014
lhumerus 77.4416 -4.97515 59.9226
lradius 12.0384
lwrist -36.7059
lhand -25.1715 -7.52841
lfingers 7.12502
lthumb 1.3459 22.4471
rfemur 71.429 -66.6697 -169.422
rtibia 156.155
rfoot -78.8044 63.2906
rtoes -28.0608
lfemur -261.212 78.241 -175.422
ltibia 157.907
lfoot -52.7156 -43.114
ltoes -26.5012
87
root 0.94263 7.36637 2.71303 -188.971 -3.65404 -179.414
lowerback 42.0184 0.623801 8.83841
upperback 12.4866 -0.544898 1.3753
thorax -5.74121 -2.18299 -2.63572
lowerneck -21.6149 0.662699 2.17427
upperneck -6.44772 -1.15857 -3.65053
head 1.55046 -1.42684 -1.69384
rclavicle 2.66371e-014 2.14687e-014
rhumerus 72.8534 0.925422 -45.4384
rradius 17.3947
rwrist 22.3793
rhand -14.744 8.8944
rfingers 7.12502
rthumb 11.4117 -20.775
lclavicle 2.66371e-014 2.14687e-014
lhumerus 77.3769 -4.65485 60.4294
lradius 12.3254
lwrist -36.5444
lhand -24.7569 -7.38066
lfingers 7.12502
lthumb 1.74635 22.5919
rfemur 71.8383 -67.6111 -169.203
rtibia 155.802
rfoot -77.3437 63.7068
rtoes -27.6053
lfemur -260.165 78.8758 -174.791
ltibia 157.597
lfoot -52.0995 -43.1602
ltoes -26.4239
88
root 0.935827 7.43486 2.71091 -188.658 -3.56253 -179.425
lowerback 41.2837 0.665789 8.68448
upperback 12.3935 -0.485623 1.4019
thorax -5.63804 -2.1062 -2.57594
lowerneck -21.7596 0.678451 2.14737
upperneck -6.40902 -1.1443 -3.69837
head 1.5889 -1.42717 -1.70727
rclavicle 1.98785e-014 3.26007e-014
rhumerus 72.6409 1.45937 -41.2523
rradius 18.1098
rwrist 18.1234
rhand -14.8288 8.17246
rfingers 7.12502
rthumb 11.3298 -21.5015
lclavicle 1.98785e-014 3.26007e-014
lhumerus 77.3921 -4.37092 60.6839
lradius 12.5285
lwrist -36.0979
lhand -24.294 -7.27374
lfingers 7.12502
lthumb 2.19339 22.6947
rfemur 72.8922 -69.0313 -169.404
rtibia 155.358
rfoot -75.0962 64.1944
rtoes -27.1515
lfemur -256.797 79.9654 -172.039
ltibia 157.191
lfoot -51.1393 -43.0509
ltoes -26.521
89
root 0.928487 7.52359 2.7111 -188.146 -3.48436 -179.433
lowerback 40.3658 0.695808 8.48808
upperback 12.2581 -0.431172 1.43821
thorax -5.52452 -2.01765 -2.48664
lowerneck -21.8533 0.702064 2.10415
upperneck -6.40198 -1.11651 -3.74385
head 1.6081 -1.42033 -1.71447
rclavicle 2.22639e-014 -3.18055e-015
rhumerus 72.446 1.96961 -37.5839
rradius 18.8075
rwrist 14.4679
rhand -15.012 7.54666
rfingers 7.12502
rthumb 11.1532 -22.1369
lclavicle 2.22639e-014 -3.18055e-015
lhumerus 77.5022 -4.10239 60.4268
lradius 12.6195
lwrist -35.1646
lhand -23.8995 -7.07511
lfingers 7.12502
lthumb 2.57441 22.8891
rfemur 74.6735 -71.0651 -170.073
rtibia 154.806
rfoot -71.7903 64.6099
rtoes -26.6368
lfemur -249.184 81.6683 -165.225
ltibia 156.65
lfoot -49.5097 -43.0027
ltoes -26.3222
